import React from "react";

const LoaderSvg = () => <svg style="font-family:Montserrat; background-color:#F5F5F5" width="364" height="375" id="radial-plugin5e417e3dbd13a114e89184f65977101"><rect x="0" y="0" height="375" width="364" style="stroke: rgb(171, 183, 194); stroke-width: 1; fill: rgb(245, 245, 245);"></rect><text transform="translate(182,33.0275)" text-anchor="middle" dominant-baseline="middle" style="fill: rgb(101, 118, 135); font-weight: normal; font-size: 27.0725px;">Reputation Score</text><g transform="translate(182,206.25000000000003)"><path d="M0,127.39999999999999A127.39999999999999,127.39999999999999 0 1,1 0,-127.39999999999999A127.39999999999999,127.39999999999999 0 1,1 0,127.39999999999999M0,108.29A108.29,108.29 0 1,0 0,-108.29A108.29,108.29 0 1,0 0,108.29Z" style="fill: rgb(171, 183, 194);"></path><path d="M7.80100011056864e-15,-127.39999999999999A127.39999999999999,127.39999999999999 0 1,1 -122.11567592081369,36.311454038674945L-103.79832453269165,30.86473593287371A108.29,108.29 0 1,0 6.6308500939833445e-15,-108.29Z" style="fill: rgb(110, 191, 95);"></path><text text-anchor="middle" dominant-baseline="middle" style="fill: rgb(101, 118, 135); font-weight: bold; font-size: 81px;">70.4</text><text y="89.17999999999999" text-anchor="middle" dominant-baseline="middle"><tspan font-family="FontAwesome" style="fill: rgb(101, 118, 135); font-size: 18.4093px;">ï£ </tspan><tspan style="fill: rgb(101, 118, 135); font-weight: bold; font-size: 18.4093px;">1.2</tspan></text><text y="50.96" text-anchor="middle" dominant-baseline="middle" style="fill: rgb(101, 118, 135); font-size: 18.4093px;">Mar 2020</text></g></svg>